<svg width="32" height="33" viewBox="0 0 32 33" fill="none" xmlns="http://www.w3.org/2000/svg">
<rect y="0.400009" width="32" height="32" rx="16" fill="#C1C3CF"/>
<path fill-rule="evenodd" clip-rule="evenodd" d="M17.796 8.5361C16.8136 7.52148 15.1863 7.52148 14.2039 8.53609L9.40546 13.4918C9.12987 13.7764 8.94469 14.1362 8.87323 14.5259C8.29047 17.7039 8.24745 20.9573 8.74599 24.1496L8.92249 25.2798C8.97824 25.6368 9.2857 25.9 9.64701 25.9H13C13.2761 25.9 13.5 25.6761 13.5 25.4V18.4H18.5V25.4C18.5 25.6761 18.7238 25.9 19 25.9H22.3529C22.7142 25.9 23.0217 25.6368 23.0774 25.2798L23.2539 24.1496C23.7524 20.9573 23.7094 17.7039 23.1267 14.5259C23.0552 14.1362 22.87 13.7764 22.5944 13.4918L17.796 8.5361Z" fill="#0D2B47"/>
</svg>
